# xmcd CD database file
#
# Track frame offsets:
#	150
#	24061
#	51807
#	76888
#	125347
#	161152
#	214318
#	238240
#	265571
#	302185
#
# Disc length: 4655 seconds
#
# Revision: 2
# Processed by: cddbd v1.5.2PL0 Copyright (c) Steve Scherf et al.
# Submitted via: CDex 1.51
#
DISCID=7e122d0a
DTITLE=Émile Waldteufel - Évocation dramatique de la vie d'Émile Waldteufel  (par Alexandre Sorel)  CD 1-2
DYEAR=1994
DGENRE=Classique
TTITLE0=Un inconnu illustre né à Strasbourg
TTITLE1=De l'Alsace à Paris
TTITLE2=Au conservatoire
TTITLE3=Premières compositions
TTITLE4=À Biarritz
TTITLE5=Aux Tuilleries et à Compiègne
TTITLE6=L'Amour...
TTITLE7=La Guerre de 1870 et la Commune
TTITLE8=Le mariage d'Émile et la 3ème République
TTITLE9=Manolo
EXTD=YEAR: 1994
EXTT0=
EXTT1=
EXTT2=
EXTT3=
EXTT4=
EXTT5=
EXTT6=
EXTT7=
EXTT8=
EXTT9=
PLAYORDER=
